<svg
  xmlns="http://www.w3.org/2000/svg"
  height="50"
  width="50"
  id="svg953"
  version="1.1"
  focusable="false">
    <g
      fill-rule="evenodd"
      fill="none"
      >
      <path
        transform="translate(40.921814,-6.3794869)"
        fill="#0077B5"
        d="m -39.921814,11.38938 c 0,-2.2146028 1.794052,-4.0098931 4.009893,-4.0098931 H 4.0682928 c 2.214603,0 4.009893,1.7940524 4.009893,4.0098931 v 39.980214 c 0,2.214603 -1.794053,4.009893 -4.009893,4.009893 H -35.911921 c -2.214603,0 -4.009893,-1.794053 -4.009893,-4.009893 z m 19,14.290107 h 6.5 v 3.266 c 0.937,-1.878 3.338,-3.566 6.9449998,-3.566 6.91400005,0 8.555,3.738 8.555,10.597 v 12.703 h -7 v -11.141 c 0,-3.906 -0.937,-6.109 -3.32,-6.109 -3.3049998,0 -4.6799998,2.375 -4.6799998,6.109 v 11.141 h -7 z m -12,22.7 h 7 v -23 h -7 z m 8,-30.5 c 0,2.485 -2.015,4.5 -4.5,4.5 -2.485,0 -4.5,-2.015 -4.5,-4.5 0,-2.485 2.015,-4.5 4.5,-4.5 2.485,0 4.5,2.015 4.5,4.5 z" />
    </g>
</svg>
